<svg width="20" height="20" viewBox="0 0 20 20" fill="none" xmlns="http://www.w3.org/2000/svg">
<path d="M13.6375 1.19167C13.6375 2.14167 13.2267 3.08334 12.6567 3.75834C12.0367 4.50834 10.9983 5.06667 10.1675 5.06667C10.0675 5.06667 9.97583 5.05 9.9175 5.04167C9.90916 4.99167 9.88416 4.85834 9.88416 4.71667C9.88416 3.75834 10.3608 2.825 10.8892 2.23334C11.5592 1.45 12.6742 0.866669 13.5958 0.833336C13.6208 0.941669 13.6375 1.06667 13.6375 1.19167V1.19167ZM17.4417 14.2833C17.4167 14.3417 17.0558 15.6 16.1767 16.8833C15.3892 18 14.56 19.1417 13.3183 19.1417C12.0542 19.1417 11.735 18.4083 10.2933 18.4083C8.87833 18.4083 8.375 19.1667 7.235 19.1667C6.0875 19.1667 5.29166 18.1167 4.37833 16.8333C3.30583 15.3167 2.4425 12.975 2.4425 10.7667C2.4425 7.2 4.77333 5.30834 7.06916 5.30834C8.27583 5.30834 9.29833 6.1 10.0692 6.1C10.79 6.1 11.9208 5.25834 13.3208 5.25834C13.8317 5.25834 15.7258 5.30834 16.9658 7.08334C16.8575 7.15834 14.98 8.225 14.98 10.575C14.98 13.2917 17.3583 14.2583 17.4425 14.2833H17.4417Z" fill="black"/>
</svg>
